<svg xmlns="http://www.w3.org/2000/svg" xmlns:xlink="http://www.w3.org/1999/xlink" width="184" zoomAndPan="magnify" viewBox="0 0 138 42" height="56" preserveAspectRatio="xMidYMid meet" version="1.0"><defs><g/><clipPath id="0e6b9eacd7"><path d="M 2.191406 12.550781 L 24.898438 12.550781 L 24.898438 27 L 2.191406 27 Z M 2.191406 12.550781 " clip-rule="nonzero"/></clipPath></defs><g clip-path="url(#0e6b9eacd7)"><path fill="#1f001d" d="M 5.070312 19.734375 L 9.082031 22.980469 L 8.347656 24.71875 L 2.191406 19.734375 L 11.050781 12.566406 L 11.050781 14.894531 Z M 18.445312 14.753906 L 17.710938 16.492188 L 21.722656 19.734375 L 15.742188 24.574219 L 15.742188 26.902344 L 24.601562 19.730469 Z M 15.4375 12.566406 L 9.386719 26.902344 L 11.355469 26.902344 L 17.40625 12.566406 Z M 15.4375 12.566406 " fill-opacity="1" fill-rule="nonzero"/></g><g fill="#1f001d" fill-opacity="1"><g transform="translate(31.305801, 26.586023)"><g><path d="M 1.964844 0 L 4.703125 0 L 4.703125 -3.960938 L 7.800781 -7.164062 L 12.503906 0 L 15.914062 0 L 9.699219 -9 L 15.796875 -15.246094 L 12.128906 -15.246094 L 4.703125 -7.292969 L 4.703125 -15.246094 L 1.964844 -15.246094 Z M 1.964844 0 "/></g></g></g><g fill="#1f001d" fill-opacity="1"><g transform="translate(47.391295, 26.586023)"><g><path d="M 1.585938 0 L 4.261719 0 L 4.261719 -5.460938 C 4.261719 -7.25 5.058594 -8.621094 6.742188 -8.621094 C 8.328125 -8.621094 8.683594 -7.464844 8.683594 -6.140625 L 8.683594 0 L 11.359375 0 L 11.359375 -6.472656 C 11.359375 -8.730469 10.207031 -11.003906 7.378906 -11.003906 C 6.324219 -11.003906 5.125 -10.585938 4.261719 -9.527344 L 4.261719 -15.246094 L 1.585938 -15.246094 Z M 1.585938 0 "/></g></g></g><g fill="#1f001d" fill-opacity="1"><g transform="translate(60.002928, 26.586023)"><g><path d="M 6.074219 0.214844 C 9.410156 0.214844 11.597656 -2.363281 11.597656 -5.417969 C 11.597656 -8.457031 9.410156 -11.003906 6.074219 -11.003906 C 2.742188 -11.003906 0.550781 -8.457031 0.550781 -5.417969 C 0.550781 -2.363281 2.742188 0.214844 6.074219 0.214844 Z M 6.074219 -2.050781 C 4.089844 -2.050781 3.289062 -3.648438 3.289062 -5.417969 C 3.289062 -7.1875 4.089844 -8.730469 6.074219 -8.730469 C 8.070312 -8.730469 8.859375 -7.1875 8.859375 -5.417969 C 8.859375 -3.648438 8.070312 -2.050781 6.074219 -2.050781 Z M 6.074219 -2.050781 "/></g></g></g><g fill="#1f001d" fill-opacity="1"><g transform="translate(72.172232, 26.586023)"><g><path d="M 8.371094 -15.246094 L 8.371094 -9.699219 C 7.628906 -10.628906 6.429688 -11.003906 5.308594 -11.003906 C 2.320312 -11.003906 0.679688 -8.371094 0.679688 -5.394531 C 0.679688 -2.382812 2.320312 0.214844 5.351562 0.214844 C 6.550781 0.214844 7.734375 -0.195312 8.480469 -1.207031 L 8.597656 0 L 11.046875 0 L 11.046875 -15.246094 Z M 5.988281 -2.167969 C 4.175781 -2.167969 3.355469 -3.582031 3.355469 -5.394531 C 3.355469 -7.1875 4.175781 -8.621094 5.988281 -8.621094 C 7.800781 -8.621094 8.597656 -7.207031 8.597656 -5.394531 C 8.597656 -3.558594 7.800781 -2.167969 5.988281 -2.167969 Z M 5.988281 -2.167969 "/></g></g></g><g fill="#1f001d" fill-opacity="1"><g transform="translate(84.805442, 26.586023)"><g><path d="M 6.054688 0.214844 C 7.867188 0.214844 9.300781 -0.421875 10.476562 -1.726562 L 8.664062 -3.3125 C 7.910156 -2.472656 7.046875 -2.167969 6.074219 -2.167969 C 4.378906 -2.167969 3.605469 -3.117188 3.378906 -4.53125 L 10.777344 -4.53125 C 10.832031 -4.683594 10.875 -5.125 10.875 -5.566406 C 10.875 -7.972656 9.65625 -11.003906 5.878906 -11.003906 C 2.234375 -11.003906 0.59375 -8.15625 0.59375 -5.351562 C 0.59375 -2.449219 2.339844 0.214844 6.054688 0.214844 Z M 3.378906 -6.429688 C 3.625 -7.777344 4.304688 -8.792969 5.859375 -8.792969 C 7.230469 -8.792969 8.113281 -7.972656 8.285156 -6.429688 Z M 3.378906 -6.429688 "/></g></g></g><g fill="#1f001d" fill-opacity="1"><g transform="translate(96.316659, 26.586023)"><g><path d="M 8.371094 -15.246094 L 8.371094 -9.699219 C 7.628906 -10.628906 6.429688 -11.003906 5.308594 -11.003906 C 2.320312 -11.003906 0.679688 -8.371094 0.679688 -5.394531 C 0.679688 -2.382812 2.320312 0.214844 5.351562 0.214844 C 6.550781 0.214844 7.734375 -0.195312 8.480469 -1.207031 L 8.597656 0 L 11.046875 0 L 11.046875 -15.246094 Z M 5.988281 -2.167969 C 4.175781 -2.167969 3.355469 -3.582031 3.355469 -5.394531 C 3.355469 -7.1875 4.175781 -8.621094 5.988281 -8.621094 C 7.800781 -8.621094 8.597656 -7.207031 8.597656 -5.394531 C 8.597656 -3.558594 7.800781 -2.167969 5.988281 -2.167969 Z M 5.988281 -2.167969 "/></g></g></g></svg>