<svg xmlns="http://www.w3.org/2000/svg" xmlns:xlink="http://www.w3.org/1999/xlink" width="500" zoomAndPan="magnify" viewBox="0 0 375 374.999991" height="500" preserveAspectRatio="xMidYMid meet" version="1.0"><defs><g/><clipPath id="307cc0455a"><path d="M 67.988281 145.539062 L 130.988281 145.539062 L 130.988281 208.539062 L 67.988281 208.539062 Z M 67.988281 145.539062 " clip-rule="nonzero"/></clipPath></defs><g clip-path="url(#307cc0455a)"><path fill="#ffffff" d="M 152.585938 175.488281 C 152.585938 177.230469 152.503906 178.964844 152.332031 180.699219 C 152.160156 182.429688 151.90625 184.148438 151.566406 185.855469 C 151.226562 187.5625 150.804688 189.25 150.300781 190.914062 C 149.792969 192.578125 149.207031 194.214844 148.542969 195.824219 C 147.875 197.433594 147.132812 199.003906 146.3125 200.539062 C 145.492188 202.074219 144.597656 203.5625 143.632812 205.011719 C 142.664062 206.457031 141.628906 207.855469 140.527344 209.199219 C 139.421875 210.546875 138.253906 211.832031 137.023438 213.0625 C 135.792969 214.292969 134.503906 215.460938 133.160156 216.566406 C 131.8125 217.667969 130.417969 218.707031 128.972656 219.671875 C 127.523438 220.640625 126.03125 221.53125 124.5 222.351562 C 122.964844 223.171875 121.390625 223.917969 119.785156 224.582031 C 118.175781 225.25 116.539062 225.835938 114.875 226.339844 C 113.207031 226.84375 111.523438 227.265625 109.816406 227.605469 C 108.109375 227.945312 106.390625 228.199219 104.65625 228.371094 C 102.925781 228.542969 101.1875 228.628906 99.449219 228.628906 C 97.707031 228.628906 95.972656 228.542969 94.238281 228.371094 C 92.507812 228.199219 90.789062 227.945312 89.082031 227.605469 C 87.375 227.265625 85.6875 226.84375 84.023438 226.339844 C 82.359375 225.835938 80.722656 225.25 79.113281 224.582031 C 77.503906 223.917969 75.933594 223.171875 74.398438 222.351562 C 72.863281 221.53125 71.375 220.640625 69.925781 219.671875 C 68.480469 218.707031 67.082031 217.667969 65.738281 216.566406 C 64.390625 215.460938 63.105469 214.292969 61.875 213.0625 C 60.644531 211.832031 59.476562 210.546875 58.371094 209.199219 C 57.269531 207.855469 56.230469 206.457031 55.265625 205.011719 C 54.296875 203.5625 53.40625 202.074219 52.585938 200.539062 C 51.765625 199.003906 51.019531 197.433594 50.355469 195.824219 C 49.6875 194.214844 49.101562 192.578125 48.597656 190.914062 C 48.09375 189.25 47.671875 187.5625 47.332031 185.855469 C 46.992188 184.148438 46.738281 182.429688 46.566406 180.699219 C 46.394531 178.964844 46.308594 177.230469 46.308594 175.488281 C 46.308594 173.75 46.394531 172.011719 46.566406 170.28125 C 46.738281 168.546875 46.992188 166.828125 47.332031 165.121094 C 47.671875 163.414062 48.09375 161.730469 48.597656 160.0625 C 49.101562 158.398438 49.6875 156.761719 50.355469 155.152344 C 51.019531 153.546875 51.765625 151.972656 52.585938 150.441406 C 53.40625 148.90625 54.296875 147.414062 55.265625 145.964844 C 56.230469 144.519531 57.269531 143.125 58.371094 141.777344 C 59.476562 140.433594 60.644531 139.144531 61.875 137.914062 C 63.105469 136.683594 64.390625 135.515625 65.738281 134.410156 C 67.082031 133.308594 68.480469 132.273438 69.925781 131.304688 C 71.375 130.339844 72.863281 129.445312 74.398438 128.625 C 75.933594 127.804688 77.503906 127.0625 79.113281 126.394531 C 80.722656 125.730469 82.359375 125.144531 84.023438 124.636719 C 85.6875 124.132812 87.375 123.710938 89.082031 123.371094 C 90.789062 123.03125 92.507812 122.777344 94.238281 122.605469 C 95.972656 122.433594 97.707031 122.351562 99.449219 122.351562 C 101.1875 122.351562 102.925781 122.433594 104.65625 122.605469 C 106.390625 122.777344 108.109375 123.03125 109.816406 123.371094 C 111.523438 123.710938 113.207031 124.132812 114.875 124.636719 C 116.539062 125.144531 118.175781 125.730469 119.785156 126.394531 C 121.390625 127.0625 122.964844 127.804688 124.5 128.625 C 126.03125 129.445312 127.523438 130.339844 128.972656 131.304688 C 130.417969 132.273438 131.8125 133.308594 133.160156 134.410156 C 134.503906 135.515625 135.792969 136.683594 137.023438 137.914062 C 138.253906 139.144531 139.421875 140.433594 140.527344 141.777344 C 141.628906 143.125 142.664062 144.519531 143.632812 145.964844 C 144.597656 147.414062 145.492188 148.90625 146.3125 150.441406 C 147.132812 151.972656 147.875 153.546875 148.542969 155.152344 C 149.207031 156.761719 149.792969 158.398438 150.300781 160.0625 C 150.804688 161.730469 151.226562 163.414062 151.566406 165.121094 C 151.90625 166.828125 152.160156 168.546875 152.332031 170.28125 C 152.503906 172.011719 152.585938 173.75 152.585938 175.488281 Z M 152.585938 175.488281 " fill-opacity="1" fill-rule="nonzero"/></g><path fill="#e6e6e6" d="M 91.445312 172.746094 C 91.90625 172.976562 92.472656 172.789062 92.707031 172.324219 C 92.9375 171.859375 92.75 171.292969 92.285156 171.0625 L 82.433594 166.136719 L 92.285156 161.210938 C 92.75 160.980469 92.9375 160.414062 92.707031 159.949219 C 92.472656 159.484375 91.90625 159.296875 91.445312 159.527344 L 79.988281 165.257812 C 79.777344 165.339844 79.59375 165.496094 79.484375 165.714844 C 79.253906 166.179688 79.441406 166.75 79.910156 166.980469 Z M 91.445312 172.746094 " fill-opacity="1" fill-rule="nonzero"/><path fill="#e6e6e6" d="M 106.613281 171.0625 C 106.148438 171.292969 105.960938 171.859375 106.191406 172.324219 C 106.421875 172.789062 106.988281 172.976562 107.453125 172.746094 L 118.988281 166.980469 C 119.457031 166.75 119.644531 166.179688 119.410156 165.714844 C 119.300781 165.496094 119.121094 165.339844 118.910156 165.257812 L 107.453125 159.53125 C 106.988281 159.296875 106.421875 159.484375 106.191406 159.949219 C 105.960938 160.414062 106.148438 160.980469 106.613281 161.210938 L 116.460938 166.136719 Z M 106.613281 171.0625 " fill-opacity="1" fill-rule="nonzero"/><path fill="#e6e6e6" d="M 103.125 156.476562 C 103.257812 155.972656 102.960938 155.457031 102.457031 155.324219 C 101.953125 155.1875 101.4375 155.488281 101.300781 155.992188 L 95.773438 176.621094 C 95.636719 177.125 95.9375 177.644531 96.441406 177.777344 C 96.945312 177.910156 97.460938 177.613281 97.597656 177.109375 Z M 103.125 156.476562 " fill-opacity="1" fill-rule="nonzero"/><path fill="#e6e6e6" d="M 127.789062 182.359375 L 71.109375 182.359375 L 71.109375 152.246094 C 71.109375 151.417969 71.785156 150.742188 72.613281 150.742188 L 126.285156 150.742188 C 127.113281 150.742188 127.789062 151.417969 127.789062 152.246094 Z M 72.613281 191.054688 L 91.886719 191.054688 L 91.886719 195.78125 L 88.261719 195.78125 C 86.519531 195.78125 85.089844 197.210938 85.089844 198.953125 C 85.089844 200.699219 86.515625 202.125 88.261719 202.125 L 110.265625 202.125 C 112.007812 202.125 113.4375 200.699219 113.4375 198.953125 C 113.4375 197.210938 112.011719 195.78125 110.265625 195.78125 L 106.640625 195.78125 L 106.640625 191.054688 L 126.285156 191.054688 C 128.148438 191.054688 129.679688 189.527344 129.679688 187.660156 L 129.679688 152.246094 C 129.679688 150.382812 128.148438 148.851562 126.285156 148.851562 L 72.613281 148.851562 C 70.75 148.851562 69.21875 150.378906 69.21875 152.246094 L 69.21875 187.660156 C 69.21875 189.523438 70.746094 191.054688 72.613281 191.054688 Z M 72.613281 191.054688 " fill-opacity="1" fill-rule="evenodd"/><g fill="#e6e6e6" fill-opacity="1"><g transform="translate(139.642891, 190.806549)"><g><path d="M 4.230469 0 L 10.140625 0 L 10.140625 -8.535156 L 16.8125 -15.441406 L 26.953125 0 L 34.300781 0 L 20.90625 -19.394531 L 34.042969 -32.859375 L 26.136719 -32.859375 L 10.140625 -15.71875 L 10.140625 -32.859375 L 4.230469 -32.859375 Z M 4.230469 0 "/></g></g><g transform="translate(174.315191, 190.806549)"><g><path d="M 3.417969 0 L 9.183594 0 L 9.183594 -11.765625 C 9.183594 -15.625 10.90625 -18.582031 14.535156 -18.582031 C 17.953125 -18.582031 18.71875 -16.09375 18.71875 -13.230469 L 18.71875 0 L 24.488281 0 L 24.488281 -13.953125 C 24.488281 -18.8125 22 -23.71875 15.90625 -23.71875 C 13.628906 -23.71875 11.046875 -22.8125 9.183594 -20.535156 L 9.183594 -32.859375 L 3.417969 -32.859375 Z M 3.417969 0 "/></g></g><g transform="translate(201.499577, 190.806549)"><g><path d="M 13.09375 0.464844 C 20.277344 0.464844 25 -5.09375 25 -11.671875 C 25 -18.230469 20.277344 -23.71875 13.09375 -23.71875 C 5.90625 -23.71875 1.1875 -18.230469 1.1875 -11.671875 C 1.1875 -5.09375 5.90625 0.464844 13.09375 0.464844 Z M 13.09375 -4.417969 C 8.8125 -4.417969 7.09375 -7.859375 7.09375 -11.671875 C 7.09375 -15.488281 8.8125 -18.8125 13.09375 -18.8125 C 17.394531 -18.8125 19.09375 -15.488281 19.09375 -11.671875 C 19.09375 -7.859375 17.394531 -4.417969 13.09375 -4.417969 Z M 13.09375 -4.417969 "/></g></g><g transform="translate(227.730532, 190.806549)"><g><path d="M 18.046875 -32.859375 L 18.046875 -20.90625 C 16.441406 -22.90625 13.859375 -23.71875 11.441406 -23.71875 C 5 -23.71875 1.464844 -18.046875 1.464844 -11.628906 C 1.464844 -5.140625 5 0.464844 11.535156 0.464844 C 14.117188 0.464844 16.671875 -0.417969 18.277344 -2.605469 L 18.535156 0 L 23.8125 0 L 23.8125 -32.859375 Z M 12.90625 -4.675781 C 9 -4.675781 7.230469 -7.71875 7.230469 -11.628906 C 7.230469 -15.488281 9 -18.582031 12.90625 -18.582031 C 16.8125 -18.582031 18.535156 -15.535156 18.535156 -11.628906 C 18.535156 -7.675781 16.8125 -4.675781 12.90625 -4.675781 Z M 12.90625 -4.675781 "/></g></g><g transform="translate(254.961426, 190.806549)"><g><path d="M 13.046875 0.464844 C 16.953125 0.464844 20.046875 -0.90625 22.578125 -3.71875 L 18.671875 -7.140625 C 17.046875 -5.324219 15.183594 -4.675781 13.09375 -4.675781 C 9.441406 -4.675781 7.765625 -6.71875 7.277344 -9.765625 L 23.230469 -9.765625 C 23.347656 -10.09375 23.441406 -11.046875 23.441406 -12 C 23.441406 -17.183594 20.8125 -23.71875 12.671875 -23.71875 C 4.8125 -23.71875 1.277344 -17.582031 1.277344 -11.535156 C 1.277344 -5.277344 5.046875 0.464844 13.046875 0.464844 Z M 7.277344 -13.859375 C 7.8125 -16.765625 9.277344 -18.953125 12.628906 -18.953125 C 15.582031 -18.953125 17.488281 -17.183594 17.859375 -13.859375 Z M 7.277344 -13.859375 "/></g></g><g transform="translate(279.773864, 190.806549)"><g><path d="M 18.046875 -32.859375 L 18.046875 -20.90625 C 16.441406 -22.90625 13.859375 -23.71875 11.441406 -23.71875 C 5 -23.71875 1.464844 -18.046875 1.464844 -11.628906 C 1.464844 -5.140625 5 0.464844 11.535156 0.464844 C 14.117188 0.464844 16.671875 -0.417969 18.277344 -2.605469 L 18.535156 0 L 23.8125 0 L 23.8125 -32.859375 Z M 12.90625 -4.675781 C 9 -4.675781 7.230469 -7.71875 7.230469 -11.628906 C 7.230469 -15.488281 9 -18.582031 12.90625 -18.582031 C 16.8125 -18.582031 18.535156 -15.535156 18.535156 -11.628906 C 18.535156 -7.675781 16.8125 -4.675781 12.90625 -4.675781 Z M 12.90625 -4.675781 "/></g></g></g></svg>