<?xml version="1.0" encoding="UTF-8"?>
<!DOCTYPE svg PUBLIC "-//W3C//DTD SVG 1.1//EN" "http://www.w3.org/Graphics/SVG/1.1/DTD/svg11.dtd">
<svg xmlns="http://www.w3.org/2000/svg" version="1.1" width="1920px" height="1080px" style="shape-rendering:geometricPrecision; text-rendering:geometricPrecision; image-rendering:optimizeQuality; fill-rule:evenodd; clip-rule:evenodd" xmlns:xlink="http://www.w3.org/1999/xlink">
<g><path style="opacity:0.988" fill="#ac6664" d="M 353.5,714.5 C 354.436,715.974 355.77,716.974 357.5,717.5C 358.579,719.543 360.246,720.876 362.5,721.5C 365.792,724.49 369.126,727.49 372.5,730.5C 375.167,733.833 378.167,736.833 381.5,739.5C 382.8,742.432 384.8,744.766 387.5,746.5C 388.124,748.754 389.457,750.421 391.5,751.5C 392.026,753.23 393.026,754.564 394.5,755.5C 434.527,815.447 440.527,878.78 412.5,945.5C 411.662,945.842 411.328,946.508 411.5,947.5C 410.662,947.842 410.328,948.508 410.5,949.5C 409.662,949.842 409.328,950.508 409.5,951.5C 408.662,951.842 408.328,952.508 408.5,953.5C 406.412,955.336 405.079,957.669 404.5,960.5C 402.336,962.822 400.669,965.489 399.5,968.5C 398.094,968.973 397.427,969.973 397.5,971.5C 396.026,972.436 395.026,973.77 394.5,975.5C 393.026,976.436 392.026,977.77 391.5,979.5C 389.738,980.262 388.738,981.596 388.5,983.5C 387.833,983.5 387.5,983.833 387.5,984.5C 385.11,985.891 383.443,987.891 382.5,990.5C 381.833,990.5 381.5,990.833 381.5,991.5C 380.833,991.5 380.5,991.833 380.5,992.5C 379.833,992.5 379.5,992.833 379.5,993.5C 378.833,993.5 378.5,993.833 378.5,994.5C 376.167,996.167 374.167,998.167 372.5,1000.5C 371.833,1000.5 371.5,1000.83 371.5,1001.5C 370.833,1001.5 370.5,1001.83 370.5,1002.5C 369.833,1002.5 369.5,1002.83 369.5,1003.5C 368.833,1003.5 368.5,1003.83 368.5,1004.5C 365.891,1005.44 363.891,1007.11 362.5,1009.5C 361.833,1009.5 361.5,1009.83 361.5,1010.5C 359.596,1010.74 358.262,1011.74 357.5,1013.5C 356.128,1014.51 354.795,1015.51 353.5,1016.5C 351.77,1017.03 350.436,1018.03 349.5,1019.5C 347.973,1019.43 346.973,1020.09 346.5,1021.5C 343.489,1022.67 340.822,1024.34 338.5,1026.5C 335.669,1027.08 333.336,1028.41 331.5,1030.5C 330.508,1030.33 329.842,1030.66 329.5,1031.5C 328.508,1031.33 327.842,1031.66 327.5,1032.5C 326.508,1032.33 325.842,1032.66 325.5,1033.5C 324.508,1033.33 323.842,1033.66 323.5,1034.5C 258.71,1061.78 196.71,1056.61 137.5,1019C 79.8751,976.568 53.3751,919.401 58,847.5C 67.5233,775.668 105.023,724.501 170.5,694C 235.216,668.883 296.216,675.716 353.5,714.5 Z"/></g>
<g><path style="opacity:0.004" fill="#ac6663" d="M 353.5,713.5 C 354.833,714.167 354.833,714.167 353.5,713.5 Z"/></g>
<g><path style="opacity:0.004" fill="#ac6663" d="M 357.5,716.5 C 358.833,717.167 358.833,717.167 357.5,716.5 Z"/></g>
<g><path style="opacity:0.004" fill="#ab6764" d="M 362.5,720.5 C 363.833,721.167 363.833,721.167 362.5,720.5 Z"/></g>
<g><path style="opacity:0.004" fill="#ab6764" d="M 372.5,729.5 C 373.833,730.167 373.833,730.167 372.5,729.5 Z"/></g>
<g><path style="opacity:0.004" fill="#ab6764" d="M 381.5,738.5 C 382.833,739.167 382.833,739.167 381.5,738.5 Z"/></g>
<g><path style="opacity:0.004" fill="#ab6764" d="M 387.5,745.5 C 388.833,746.167 388.833,746.167 387.5,745.5 Z"/></g>
<g><path style="opacity:0.004" fill="#ab6764" d="M 391.5,750.5 C 392.833,751.167 392.833,751.167 391.5,750.5 Z"/></g>
<g><path style="opacity:0.004" fill="#ab6764" d="M 394.5,754.5 C 395.833,755.167 395.833,755.167 394.5,754.5 Z"/></g>
<g><path style="opacity:1" fill="#260f1e" d="M 347.5,778.5 C 348.479,822.476 348.812,866.476 348.5,910.5C 347.269,914.734 344.602,917.734 340.5,919.5C 316.5,919.5 292.5,919.5 268.5,919.5C 268.5,925.167 268.5,930.833 268.5,936.5C 273.833,936.5 279.167,936.5 284.5,936.5C 292.762,940.425 294.595,946.425 290,954.5C 288.59,955.787 287.09,956.954 285.5,958C 271.333,958.167 257.167,958.333 243,958.5C 228.077,958.651 213.244,958.151 198.5,957C 190.701,948.149 192.035,941.316 202.5,936.5C 207.5,936.5 212.5,936.5 217.5,936.5C 217.5,930.833 217.5,925.167 217.5,919.5C 193.833,919.5 170.167,919.5 146.5,919.5C 142.458,917.788 139.792,914.788 138.5,910.5C 138.177,866.791 138.511,823.124 139.5,779.5C 140.614,776.551 142.614,774.385 145.5,773C 210.5,772.333 275.5,772.333 340.5,773C 343.595,773.935 345.929,775.769 347.5,778.5 Z"/></g>
<g><path style="opacity:1" fill="#5a3039" d="M 339.5,779.5 C 275.125,779.174 210.792,779.507 146.5,780.5C 146.611,779.883 146.944,779.383 147.5,779C 211.668,778.168 275.668,778.335 339.5,779.5 Z"/></g>
<g><path style="opacity:1" fill="#ac6664" d="M 339.5,779.5 C 340.167,780.167 340.833,780.833 341.5,781.5C 341.5,817.167 341.5,852.833 341.5,888.5C 276.167,888.5 210.833,888.5 145.5,888.5C 145.5,852.833 145.5,817.167 145.5,781.5C 146.167,781.5 146.5,781.167 146.5,780.5C 210.792,779.507 275.125,779.174 339.5,779.5 Z"/></g>
<g><path style="opacity:1" fill="#824a4e" d="M 139.5,779.5 C 138.511,823.124 138.177,866.791 138.5,910.5C 137.335,867.335 137.169,824.002 138,780.5C 138.383,779.944 138.883,779.611 139.5,779.5 Z"/></g>
<g><path style="opacity:1" fill="#4f2a34" d="M 347.5,778.5 C 348.222,778.918 348.722,779.584 349,780.5C 349.831,824.002 349.665,867.335 348.5,910.5C 348.812,866.476 348.479,822.476 347.5,778.5 Z"/></g>
<g><path style="opacity:1" fill="#915456" d="M 145.5,781.5 C 145.5,817.167 145.5,852.833 145.5,888.5C 210.833,888.5 276.167,888.5 341.5,888.5C 341.5,852.833 341.5,817.167 341.5,781.5C 342.498,817.329 342.832,853.329 342.5,889.5C 276.5,889.5 210.5,889.5 144.5,889.5C 144.168,853.329 144.502,817.329 145.5,781.5 Z"/></g>
<g><path style="opacity:1" fill="#e9e7e8" d="M 214.5,809.5 C 219.667,808.492 221.334,810.325 219.5,815C 208.01,820.578 196.677,826.411 185.5,832.5C 195.863,839.351 206.863,845.184 218.5,850C 221.894,855.066 220.56,857.066 214.5,856C 200.767,849.206 187.267,842.039 174,834.5C 173.37,832.097 174.203,830.263 176.5,829C 189.384,822.726 202.051,816.226 214.5,809.5 Z"/></g>
<g><path style="opacity:1" fill="#eae9ea" d="M 268.5,809.5 C 283.043,815.771 297.377,822.604 311.5,830C 313.515,831.555 313.848,833.389 312.5,835.5C 298.27,843.788 283.604,850.622 268.5,856C 267.018,853.408 267.352,851.075 269.5,849C 280.554,844.64 291.221,839.473 301.5,833.5C 290.851,827.174 279.851,821.34 268.5,816C 267.232,813.837 267.232,811.67 268.5,809.5 Z"/></g>
<g><path style="opacity:1" fill="#eae8e8" d="M 251.5,795.5 C 256.213,795.468 257.713,797.801 256,802.5C 249.339,825.817 243.006,849.15 237,872.5C 231.527,874.283 229.527,872.283 231,866.5C 237.675,842.804 244.508,819.137 251.5,795.5 Z"/></g>
<g><path style="opacity:1" fill="#764248" d="M 146.5,919.5 C 170.167,919.5 193.833,919.5 217.5,919.5C 217.5,925.167 217.5,930.833 217.5,936.5C 212.5,936.5 207.5,936.5 202.5,936.5C 206.97,935.514 211.637,935.181 216.5,935.5C 216.5,930.5 216.5,925.5 216.5,920.5C 192.994,920.831 169.661,920.498 146.5,919.5 Z"/></g>
<g><path style="opacity:1" fill="#764348" d="M 340.5,919.5 C 317.006,920.498 293.339,920.831 269.5,920.5C 269.5,925.5 269.5,930.5 269.5,935.5C 274.695,935.179 279.695,935.513 284.5,936.5C 279.167,936.5 273.833,936.5 268.5,936.5C 268.5,930.833 268.5,925.167 268.5,919.5C 292.5,919.5 316.5,919.5 340.5,919.5 Z"/></g>
<g><path style="opacity:0.004" fill="#ac6864" d="M 412.5,945.5 C 413.833,946.167 413.833,946.167 412.5,945.5 Z"/></g>
<g><path style="opacity:0.004" fill="#ac6864" d="M 411.5,947.5 C 412.833,948.167 412.833,948.167 411.5,947.5 Z"/></g>
<g><path style="opacity:0.004" fill="#ac6864" d="M 410.5,949.5 C 411.833,950.167 411.833,950.167 410.5,949.5 Z"/></g>
<g><path style="opacity:0.004" fill="#ac6864" d="M 409.5,951.5 C 410.833,952.167 410.833,952.167 409.5,951.5 Z"/></g>
<g><path style="opacity:0.004" fill="#ac6864" d="M 408.5,953.5 C 409.833,954.167 409.833,954.167 408.5,953.5 Z"/></g>
<g><path style="opacity:0.004" fill="#ac6864" d="M 404.5,960.5 C 405.833,961.167 405.833,961.167 404.5,960.5 Z"/></g>
<g><path style="opacity:0.004" fill="#ac6663" d="M 399.5,968.5 C 400.833,969.167 400.833,969.167 399.5,968.5 Z"/></g>
<g><path style="opacity:0.004" fill="#ac6864" d="M 397.5,971.5 C 398.833,972.167 398.833,972.167 397.5,971.5 Z"/></g>
<g><path style="opacity:0.004" fill="#ab6764" d="M 394.5,975.5 C 395.833,976.167 395.833,976.167 394.5,975.5 Z"/></g>
<g><path style="opacity:0.004" fill="#ab6764" d="M 391.5,979.5 C 392.833,980.167 392.833,980.167 391.5,979.5 Z"/></g>
<g><path style="opacity:0.004" fill="#ac6663" d="M 388.5,983.5 C 389.833,984.167 389.833,984.167 388.5,983.5 Z"/></g>
<g><path style="opacity:0.004" fill="#ab6663" d="M 387.5,984.5 C 387.833,984.5 388.167,984.5 388.5,984.5C 388.315,985.17 387.981,985.17 387.5,984.5 Z"/></g>
<g><path style="opacity:0.004" fill="#ac6864" d="M 382.5,990.5 C 383.833,991.167 383.833,991.167 382.5,990.5 Z"/></g>
<g><path style="opacity:0.004" fill="#ab6663" d="M 381.5,991.5 C 381.833,991.5 382.167,991.5 382.5,991.5C 382.315,992.17 381.981,992.17 381.5,991.5 Z"/></g>
<g><path style="opacity:0.004" fill="#ab6663" d="M 380.5,992.5 C 380.833,992.5 381.167,992.5 381.5,992.5C 381.315,993.17 380.981,993.17 380.5,992.5 Z"/></g>
<g><path style="opacity:0.004" fill="#ab6663" d="M 379.5,993.5 C 379.833,993.5 380.167,993.5 380.5,993.5C 380.315,994.17 379.981,994.17 379.5,993.5 Z"/></g>
<g><path style="opacity:0.004" fill="#ab6663" d="M 378.5,994.5 C 378.833,994.5 379.167,994.5 379.5,994.5C 379.315,995.17 378.981,995.17 378.5,994.5 Z"/></g>
<g><path style="opacity:0.004" fill="#ab6663" d="M 372.5,1000.5 C 373.833,1001.17 373.833,1001.17 372.5,1000.5 Z"/></g>
<g><path style="opacity:0.004" fill="#ab6663" d="M 371.5,1001.5 C 371.833,1001.5 372.167,1001.5 372.5,1001.5C 372.315,1002.17 371.981,1002.17 371.5,1001.5 Z"/></g>
<g><path style="opacity:0.004" fill="#ab6663" d="M 370.5,1002.5 C 370.833,1002.5 371.167,1002.5 371.5,1002.5C 371.315,1003.17 370.981,1003.17 370.5,1002.5 Z"/></g>
<g><path style="opacity:0.004" fill="#ab6663" d="M 369.5,1003.5 C 369.833,1003.5 370.167,1003.5 370.5,1003.5C 370.315,1004.17 369.981,1004.17 369.5,1003.5 Z"/></g>
<g><path style="opacity:0.004" fill="#ac6864" d="M 368.5,1004.5 C 368.833,1004.5 369.167,1004.5 369.5,1004.5C 369.315,1005.17 368.981,1005.17 368.5,1004.5 Z"/></g>
<g><path style="opacity:0.004" fill="#ab6663" d="M 362.5,1009.5 C 363.833,1010.17 363.833,1010.17 362.5,1009.5 Z"/></g>
<g><path style="opacity:0.004" fill="#ac6663" d="M 361.5,1010.5 C 361.833,1010.5 362.167,1010.5 362.5,1010.5C 362.315,1011.17 361.981,1011.17 361.5,1010.5 Z"/></g>
<g><path style="opacity:0.004" fill="#ab6764" d="M 357.5,1013.5 C 358.833,1014.17 358.833,1014.17 357.5,1013.5 Z"/></g>
<g><path style="opacity:0.004" fill="#ab6764" d="M 353.5,1016.5 C 354.833,1017.17 354.833,1017.17 353.5,1016.5 Z"/></g>
<g><path style="opacity:0.004" fill="#ac6864" d="M 349.5,1019.5 C 350.833,1020.17 350.833,1020.17 349.5,1019.5 Z"/></g>
<g><path style="opacity:0.004" fill="#ac6663" d="M 346.5,1021.5 C 347.833,1022.17 347.833,1022.17 346.5,1021.5 Z"/></g>
<g><path style="opacity:0.004" fill="#ac6864" d="M 338.5,1026.5 C 339.833,1027.17 339.833,1027.17 338.5,1026.5 Z"/></g>
<g><path style="opacity:0.004" fill="#ac6864" d="M 331.5,1030.5 C 332.833,1031.17 332.833,1031.17 331.5,1030.5 Z"/></g>
<g><path style="opacity:0.004" fill="#ac6864" d="M 329.5,1031.5 C 330.833,1032.17 330.833,1032.17 329.5,1031.5 Z"/></g>
<g><path style="opacity:0.004" fill="#ac6864" d="M 327.5,1032.5 C 328.833,1033.17 328.833,1033.17 327.5,1032.5 Z"/></g>
<g><path style="opacity:0.004" fill="#ac6864" d="M 325.5,1033.5 C 326.833,1034.17 326.833,1034.17 325.5,1033.5 Z"/></g>
<g><path style="opacity:0.004" fill="#ac6864" d="M 323.5,1034.5 C 324.833,1035.17 324.833,1035.17 323.5,1034.5 Z"/></g>
</svg>
