<?xml version="1.0" encoding="UTF-8"?>
<!DOCTYPE svg PUBLIC "-//W3C//DTD SVG 1.1//EN" "http://www.w3.org/Graphics/SVG/1.1/DTD/svg11.dtd">
<svg xmlns="http://www.w3.org/2000/svg" version="1.1" width="1920px" height="1080px" style="shape-rendering:geometricPrecision; text-rendering:geometricPrecision; image-rendering:optimizeQuality; fill-rule:evenodd; clip-rule:evenodd" xmlns:xlink="http://www.w3.org/1999/xlink">
<g><path style="opacity:0.918" fill="#555555" d="M 231.5,48.5 C 239.736,47.1109 244.736,50.4442 246.5,58.5C 237.509,101.466 228.675,144.466 220,187.5C 218.423,193.123 214.757,196.457 209,197.5C 200.822,195.148 197.822,189.814 200,181.5C 208.745,138.44 217.745,95.4396 227,52.5C 228.397,50.9297 229.897,49.5964 231.5,48.5 Z"/></g>
<g><path style="opacity:0.912" fill="#555555" d="M 161.5,62.5 C 170.635,63.4375 174.469,68.4375 173,77.5C 158.167,92.3333 143.333,107.167 128.5,122C 143.347,136.681 158.014,151.514 172.5,166.5C 175.323,175.008 172.323,180.008 163.5,181.5C 161.423,181.308 159.423,180.808 157.5,180C 140.333,162.833 123.167,145.667 106,128.5C 103.635,123.09 104.301,118.09 108,113.5C 123.833,97.6667 139.667,81.8333 155.5,66C 157.432,64.5415 159.432,63.3748 161.5,62.5 Z"/></g>
<g><path style="opacity:0.913" fill="#555555" d="M 282.5,62.5 C 286.229,62.576 289.562,63.7426 292.5,66C 309.333,82.8333 326.167,99.6667 343,116.5C 345,120.167 345,123.833 343,127.5C 325.5,145 308,162.5 290.5,180C 284.226,182.967 279.392,181.467 276,175.5C 275.163,171.705 275.496,168.039 277,164.5C 291.167,150.333 305.333,136.167 319.5,122C 305.333,107.833 291.167,93.6667 277,79.5C 273.644,71.9372 275.477,66.2705 282.5,62.5 Z"/></g>
</svg>
