<svg xmlns="http://www.w3.org/2000/svg" xmlns:xlink="http://www.w3.org/1999/xlink" width="1138" zoomAndPan="magnify" viewBox="0 0 853.5 222.749995" height="297" preserveAspectRatio="xMidYMid meet" version="1.0"><defs><filter x="0%" y="0%" width="100%" height="100%" id="dcdf0dd275"><feColorMatrix values="0 0 0 0 1 0 0 0 0 1 0 0 0 0 1 0 0 0 1 0" color-interpolation-filters="sRGB"/></filter><clipPath id="0afb4132fd"><path d="M 0.230469 0 L 70 0 L 70 50 L 0.230469 50 Z M 0.230469 0 " clip-rule="nonzero"/></clipPath><mask id="a4a4c2001f"><g filter="url(#dcdf0dd275)"><rect x="-85.35" width="1024.2" fill="#000000" y="-22.274999" height="267.299994" fill-opacity="0.52"/></g></mask><clipPath id="2a4878bf0b"><path d="M 0.828125 0.4375 L 30.421875 0.4375 L 30.421875 49.621094 L 0.828125 49.621094 Z M 0.828125 0.4375 " clip-rule="nonzero"/></clipPath><clipPath id="c55235128f"><path d="M 40.378906 0.4375 L 69.75 0.4375 L 69.75 49.621094 L 40.378906 49.621094 Z M 40.378906 0.4375 " clip-rule="nonzero"/></clipPath><clipPath id="65e43bf552"><rect x="0" width="70" y="0" height="50"/></clipPath><clipPath id="c7277e4ee4"><path d="M 782 172 L 852.773438 172 L 852.773438 222 L 782 222 Z M 782 172 " clip-rule="nonzero"/></clipPath><mask id="77d6da09bd"><g filter="url(#dcdf0dd275)"><rect x="-85.35" width="1024.2" fill="#000000" y="-22.274999" height="267.299994" fill-opacity="0.52"/></g></mask><clipPath id="c39af37019"><path d="M 40.503906 0.738281 L 69.875 0.738281 L 69.875 49.921875 L 40.503906 49.921875 Z M 40.503906 0.738281 " clip-rule="nonzero"/></clipPath><clipPath id="b49bc4b0ef"><path d="M 1.175781 0.738281 L 30.546875 0.738281 L 30.546875 49.921875 L 1.175781 49.921875 Z M 1.175781 0.738281 " clip-rule="nonzero"/></clipPath><clipPath id="4be3171ab7"><rect x="0" width="71" y="0" height="50"/></clipPath></defs><g clip-path="url(#0afb4132fd)"><g mask="url(#a4a4c2001f)"><g transform="matrix(1, 0, 0, 1, 0.000000000000000056, 0)"><g clip-path="url(#65e43bf552)"><g clip-path="url(#2a4878bf0b)"><path fill="#680a69" d="M 15.726562 29.738281 C 13.992188 29.738281 12.335938 29.417969 10.789062 28.863281 C 10.925781 30.429688 11.210938 32.011719 11.65625 33.574219 C 12.558594 36.792969 14.199219 39.886719 16.402344 42.652344 C 18.609375 45.410156 21.429688 47.816406 24.710938 49.621094 C 21.0625 48.8125 17.476562 47.246094 14.246094 44.984375 C 11.027344 42.722656 8.121094 39.792969 5.910156 36.285156 C 3.6875 32.789062 2.097656 28.761719 1.339844 24.476562 C 0.746094 21.070312 0.65625 17.519531 1.132812 13.96875 C 1.203125 13.042969 1.363281 12.140625 1.597656 11.265625 C 1.601562 11.253906 1.605469 11.238281 1.605469 11.222656 L 1.609375 11.226562 C 3.3125 5.015625 8.988281 0.4375 15.726562 0.4375 C 23.804688 0.4375 30.378906 7.007812 30.378906 15.085938 C 30.378906 23.164062 23.804688 29.738281 15.726562 29.738281 " fill-opacity="1" fill-rule="nonzero"/></g><g clip-path="url(#c55235128f)"><path fill="#680a69" d="M 55.320312 29.738281 C 53.585938 29.738281 51.929688 29.417969 50.382812 28.863281 C 50.519531 30.429688 50.804688 32.011719 51.25 33.574219 C 52.152344 36.792969 53.792969 39.886719 55.996094 42.652344 C 58.203125 45.410156 61.023438 47.816406 64.304688 49.621094 C 60.65625 48.8125 57.070312 47.246094 53.839844 44.984375 C 50.621094 42.722656 47.714844 39.792969 45.503906 36.285156 C 43.285156 32.789062 41.691406 28.761719 40.933594 24.476562 C 40.339844 21.066406 40.253906 17.519531 40.726562 13.96875 C 40.796875 13.042969 40.957031 12.140625 41.191406 11.269531 C 41.195312 11.253906 41.199219 11.238281 41.203125 11.222656 L 41.203125 11.226562 C 42.90625 5.015625 48.582031 0.4375 55.320312 0.4375 C 63.402344 0.4375 69.972656 7.007812 69.972656 15.085938 C 69.972656 23.164062 63.402344 29.738281 55.320312 29.738281 " fill-opacity="1" fill-rule="nonzero"/></g></g></g></g></g><g clip-path="url(#c7277e4ee4)"><g mask="url(#77d6da09bd)"><g transform="matrix(1, 0, 0, 1, 782, 172)"><g clip-path="url(#4be3171ab7)"><g clip-path="url(#c39af37019)"><path fill="#680a69" d="M 55.199219 20.621094 C 56.933594 20.621094 58.589844 20.941406 60.136719 21.496094 C 60 19.929688 59.71875 18.347656 59.273438 16.785156 C 58.367188 13.566406 56.730469 10.472656 54.527344 7.707031 C 52.316406 4.949219 49.496094 2.542969 46.214844 0.738281 C 49.867188 1.546875 53.449219 3.113281 56.679688 5.375 C 59.902344 7.636719 62.808594 10.566406 65.015625 14.074219 C 67.238281 17.570312 68.828125 21.597656 69.585938 25.882812 C 70.179688 29.289062 70.269531 32.839844 69.792969 36.390625 C 69.722656 37.316406 69.566406 38.21875 69.328125 39.09375 C 69.324219 39.105469 69.324219 39.121094 69.320312 39.136719 L 69.316406 39.132812 C 67.617188 45.34375 61.941406 49.921875 55.199219 49.921875 C 47.121094 49.921875 40.546875 43.351562 40.546875 35.273438 C 40.546875 27.195312 47.121094 20.621094 55.199219 20.621094 " fill-opacity="1" fill-rule="nonzero"/></g><g clip-path="url(#b49bc4b0ef)"><path fill="#680a69" d="M 15.605469 20.621094 C 17.339844 20.621094 18.996094 20.941406 20.542969 21.496094 C 20.40625 19.929688 20.121094 18.347656 19.675781 16.785156 C 18.773438 13.566406 17.132812 10.472656 14.929688 7.707031 C 12.722656 4.949219 9.902344 2.542969 6.621094 0.738281 C 10.269531 1.546875 13.855469 3.113281 17.085938 5.375 C 20.304688 7.636719 23.210938 10.566406 25.421875 14.074219 C 27.644531 17.570312 29.234375 21.597656 29.992188 25.882812 C 30.585938 29.292969 30.675781 32.839844 30.199219 36.390625 C 30.128906 37.316406 29.96875 38.21875 29.734375 39.089844 C 29.730469 39.105469 29.726562 39.121094 29.726562 39.136719 L 29.722656 39.132812 C 28.019531 45.34375 22.34375 49.921875 15.605469 49.921875 C 7.527344 49.921875 0.953125 43.351562 0.953125 35.273438 C 0.953125 27.195312 7.527344 20.621094 15.605469 20.621094 " fill-opacity="1" fill-rule="nonzero"/></g></g></g></g></g></svg>